<?xml version="1.0" encoding="utf-8"?>
<!-- Generator: Adobe Illustrator 22.0.1, SVG Export Plug-In . SVG Version: 6.00 Build 0)  -->
<svg version="1.1" id="Слой_1" xmlns="http://www.w3.org/2000/svg" xmlns:xlink="http://www.w3.org/1999/xlink" x="0px" y="0px"
	 viewBox="0 0 220 65" style="enable-background:new 0 0 220 65;" xml:space="preserve">
<style type="text/css">
	.st0{fill:#F6F5F3;}
</style>
<g>
	<path class="st0" d="M24.1,10.9v34.2c0,7.2-3.6,11.3-10.8,11.3c-3.3,0-6.3-1.3-7.6-2.8l2.6-6c1.2,1,2.6,1.4,4,1.4
		c2.7,0,4-1.7,4-5.2V10.9H24.1z"/>
	<path class="st0" d="M84.1,10.9L71.3,55.7h-7.4L53.1,23.3L42.5,55.7h-7.4L21.7,10.9h8.8l9,31.9l10-31.9h7.8l10.2,32l9-32H84.1z"/>
	<path class="st0" d="M81.7,55.7V10.9h7.9v37.4h20.2v7.4H81.7z"/>
	<path class="st0" d="M146,55.7h-6.3l-24.6-31v31h-7.4V10.9h6.3L138.6,42V10.9h7.4V55.7z"/>
	<path class="st0" d="M140.5,55.7V10.9h0.8c0.8,0,2.8,0,6-0.1s5.2-0.1,6.4-0.1c8.7,0,15.4,2.5,19.3,6.7c3.9,4.2,5.8,9.3,5.8,15.5
		c0,6.7-2.2,12.2-6.7,16.5c-4.4,4.3-10.8,6.5-18.9,6.5c-0.8,0-2.6,0-5.4-0.1c-2.8-0.1-4.9-0.1-6.4-0.1H140.5z M148.3,18.2v30.1
		c1.5,0.1,3.1,0.1,5.1,0.1c5.3,0,9.5-1.4,12.5-4.2s4.5-6.6,4.5-11.4c0-9.2-6.4-14.8-17-14.8C151.9,18,150.1,18.1,148.3,18.2z"/>
	<path class="st0" d="M184.2,55.7h-7.9V10.9c1,0,3.3,0,7.2-0.1c3.9-0.1,6.1-0.1,6.4-0.1c10.8,0,16.3,4.6,16.3,13.8
		c0,3.5-0.9,6.3-2.6,8.4c-1.7,2.1-3.8,3.6-6,4.4l14,18.3h-9.5l-12.4-16.8h-5.5V55.7z M184.2,18.2v13.3h5.1c4.9,0,8.6-2.6,8.6-6.9
		c0-4.4-2.8-6.5-8.3-6.5C188.8,18.1,187.1,18.2,184.2,18.2z"/>
</g>
</svg>
